# xmcd
#
# Track frame offsets:
#	150
#	45121
#	76491
#	101535
#	132290
#	159205
#	180223
#	196480
#	221712
#	246327
#	280616
#	296152
#	310777
#
# Disc length: 4508 seconds
#
# Revision: 1
# Processed by: cddbd v1.5.2PL0 Copyright (c) Steve Scherf et al.
# Submitted via: audiograbber 1.83.01
#
DISCID=ac119a0d
DTITLE=Grateful Dead - 71-10-29 Allan Theatre, Cleveland OH
DYEAR=1900
DGENRE=
TTITLE0=Truckin'
TTITLE1=Sugaree
TTITLE2=El Paso
TTITLE3=Loser
TTITLE4=Playing In The Band
TTITLE5=Brown Eyed Women
TTITLE6=BIODTL
TTITLE7=Brokedown Palace
TTITLE8=Jack Straw
TTITLE9=Tennessee Jed
TTITLE10=Mexicali Blues
TTITLE11=Big Railroad Blues
TTITLE12=Casey Jones
EXTD=
EXTT0=
EXTT1=
EXTT2=
EXTT3=
EXTT4=
EXTT5=
EXTT6=
EXTT7=
EXTT8=
EXTT9=
EXTT10=
EXTT11=
EXTT12=
PLAYORDER=
